<?xml version="1.0" encoding="utf-8"?>
<!-- Generator: Adobe Illustrator 24.0.0, SVG Export Plug-In . SVG Version: 6.00 Build 0)  -->
<svg version="1.1" id="Layer_1" xmlns="http://www.w3.org/2000/svg" xmlns:xlink="http://www.w3.org/1999/xlink" x="0px" y="0px"
	 viewBox="0 0 130.92 325.07" style="enable-background:new 0 0 130.92 325.07;" xml:space="preserve">
<style type="text/css">
	.st0{fill:#2660A5;}
</style>
<path class="st0" d="M34.05,34.28c0-17.55,14.23-31.78,31.78-31.78s31.78,14.23,31.78,31.78S83.39,66.06,65.83,66.06
	S34.05,51.83,34.05,34.28z M121.64,80.92c-4.19-4.19-9.99-6.78-16.39-6.78h-7.64v-0.1H33.3v0.1h-7.63
	c-12.59,0-22.85,10.06-23.16,22.6C2.5,96.92,2.5,97.12,2.5,97.32v86.32c0,6.67,5.6,12,12.35,11.57c6.16-0.4,10.82-5.79,10.82-11.96
	v-82.1c0-2.11,1.71-3.82,3.82-3.82l0,0c2.11,0,3.82,1.71,3.82,3.82v208.18c0,7.32,5.94,13.26,13.26,13.26h2.07
	c7.32,0,13.25-5.93,13.25-13.25V199.07c0-2.07,1.55-3.92,3.61-4.03c2.2-0.12,4.02,1.64,4.02,3.81v110.46
	c0,7.32,5.93,13.25,13.25,13.25h1.59c7.32,0,13.26-5.94,13.26-13.26V101.14c0-2.11,1.71-3.82,3.82-3.82l0,0
	c2.11,0,3.82,1.71,3.82,3.82v82.5c0,6.67,5.62,12.01,12.37,11.57c6.15-0.4,10.8-5.78,10.8-11.95V97.32
	C128.42,90.92,125.83,85.11,121.64,80.92z"/>
</svg>
