<svg xmlns="http://www.w3.org/2000/svg" width="87.109" height="67.889" viewBox="0 0 87.109 67.889">
  <path id="Path_34723" data-name="Path 34723" d="M141.728,295.588c-1.814-1.049-4.594-.84-6.5-.214a7.166,7.166,0,0,0-1.284.574c-1.93-6.767-2.5-13.8-6.678-19.852-4.43-6.422-15.749-4.12-22.219-4.05-8.328.089-20.921-2.939-28,3.05-5.093,4.309-9.664,14.081-9.852,21.276a6.877,6.877,0,0,0-4.647-1.452,5.441,5.441,0,0,0-4.953,4.893c-.145,2.068,1.267,3.648,2.991,4.572a11.063,11.063,0,0,0,3.272,1.16c-.878,9.7-4.653,24.906,3.242,31.722,6.1,5.266,12.917-.95,13.411-7.3,7.192,2.1,14.735,2.354,22.2,2.675,6.34.275,12.982.731,19.461.518,1.67,5.354,8.781,7.445,14.207,4.065,3.942-2.453,3.79-9.153,3.819-13.1a74.287,74.287,0,0,0-2.062-18.475,7.239,7.239,0,0,0,5.862-3.319C145.681,299.81,144.049,296.932,141.728,295.588Zm-7.295,17.78c-1.464,2.859-5.455,3.261-8.2,3.9a23.942,23.942,0,0,1-5.083.64,12.589,12.589,0,0,1-2.953-.538.737.737,0,0,0-.065-.625c-2-3.274,4.412-5.378,6.5-6.062C126.431,310.1,136.973,308.4,134.433,313.368Zm-54.37-32.452c4.54-5.537,18.7-2.439,24.983-2.47,8.362-.039,16.61-1.911,20,7.64,1.213,3.416,1.763,7.223,2.806,10.74a36.842,36.842,0,0,1-4.888,1.623c-3.155.545-6.311,1.12-9.469,1.693-5.315.557-10.707.651-15.459.774a73.969,73.969,0,0,1-16.561-1.539c-2.822-.569-5.356-1.792-8.046-2.6C74.925,291.332,76.638,285.093,80.063,280.917Zm-12.776,35.43c-.488-3.384.017-7.226,4.248-7.4,3.493-.142,7.1,2.526,9.718,4.569,1.153.9,3.184,2.7.8,3.293a22.147,22.147,0,0,1-4.678.237A69.751,69.751,0,0,1,67.287,316.347Z" transform="translate(-57.579 -271.359)" fill="#fff"/>
</svg>
