<svg xmlns="http://www.w3.org/2000/svg" xmlns:xlink="http://www.w3.org/1999/xlink" width="172.394" height="257.415" viewBox="0 0 172.394 257.415"><defs><style>.a{fill:url(#a);}.b{fill:url(#b);}.c{fill:url(#c);}.d{fill:url(#d);}.e{fill:url(#e);}.f{fill:url(#f);}.g{fill:#eefdff;}.h{fill:url(#g);}.i{fill:url(#h);}.j{fill:url(#i);}.k{fill:url(#j);}.l{fill:#fff;}.m{fill:url(#k);}.n{fill:url(#l);}.o{fill:url(#m);}.p{fill:url(#n);}.q{fill:url(#o);}</style><linearGradient id="a" x1="-2.064" y1="-0.129" x2="-1.012" y2="0.9" gradientUnits="objectBoundingBox"><stop offset="0.04" stop-color="#0698f1"/><stop offset="1" stop-color="#00ccd2"/></linearGradient><linearGradient id="b" x1="0.794" y1="0.545" x2="3.794" y2="0.479" xlink:href="#a"/><linearGradient id="c" x1="0.446" y1="1.234" x2="1.055" y2="-0.16" xlink:href="#a"/><linearGradient id="d" x1="0.239" y1="1.011" x2="0.912" y2="0.125" xlink:href="#a"/><linearGradient id="e" x1="0.593" y1="0.997" x2="0.601" y2="0.1" gradientUnits="objectBoundingBox"><stop offset="0" stop-color="#030d14"/><stop offset="1" stop-color="#0b2f45"/></linearGradient><radialGradient id="f" cx="18.155" cy="18.155" r="17.968" gradientTransform="matrix(-1, 0, 0, 1, 36.311, 0)" gradientUnits="userSpaceOnUse"><stop offset="0.13" stop-color="#3280fc"/><stop offset="1"/></radialGradient><linearGradient id="g" x1="-1.772" y1="0.5" x2="-0.772" y2="0.5" xlink:href="#e"/><radialGradient id="h" cx="18.155" cy="18.155" r="17.968" xlink:href="#f"/><linearGradient id="i" x1="2.709" y1="0.5" x2="3.709" y2="0.5" xlink:href="#e"/><linearGradient id="j" x1="0.358" y1="0.654" x2="1.907" y2="0.428" xlink:href="#a"/><linearGradient id="k" x1="1.138" y1="0.872" x2="1.138" y2="-0.079" xlink:href="#a"/><linearGradient id="l" x1="0.686" y1="-0.14" x2="0.686" y2="1.675" xlink:href="#a"/><linearGradient id="m" x1="-0.349" y1="1.126" x2="0.583" y2="-2.092" gradientUnits="objectBoundingBox"><stop offset="0.04" stop-color="#06cff1"/><stop offset="1" stop-color="#defa8e"/></linearGradient><linearGradient id="n" x1="7.221" y1="1.082" x2="9.805" y2="0.485" xlink:href="#a"/><linearGradient id="o" x1="6.91" y1="-1.055" x2="10.099" y2="1.583" xlink:href="#a"/></defs><g transform="translate(0 0)"><path class="a" d="M326.092,282.648c-24.076,6.594-29.764,4.749-34.053,11.2a14.7,14.7,0,0,0-2.505,9.386,13.968,13.968,0,0,0,3.915,8.174c8.247,7.984,30.941-1.783,43.94-12.466,2.834-2.328,10.436-8.577,8.9-13.015-.627-1.819-2.576-2.722-3.975-3.347C336.135,279.818,329.722,281.653,326.092,282.648Z" transform="translate(-174.101 -112.019)"/><rect class="b" width="5.124" height="33.626" transform="translate(82.783 42.432) rotate(-180)"/><rect class="c" width="44.838" height="22.097" rx="4.517" transform="translate(102.64 61.007) rotate(-180)"/><path class="d" d="M35.363,0H125.08a35.363,35.363,0,0,1,35.363,35.363V59.095a62.919,62.919,0,0,1-62.919,62.919H62.919A62.919,62.919,0,0,1,0,59.095V35.363A35.363,35.363,0,0,1,35.363,0Z" transform="translate(160.443 171.491) rotate(-180)"/><path class="e" d="M203.624,246.743h0a15.478,15.478,0,0,0,6.845,1.581h96.283a15.477,15.477,0,0,0,6.844-1.581h0c5.157-2.549,8.067-7.7,7.338-12.977l-.053-.384c-2.466-17.885-18.665-31.635-38.523-32.667-8.4-.437-17.22-.663-26.417-.61q-10.808.063-20.874.6c-19.934,1.028-36.251,14.724-38.728,32.676l-.053.387C195.558,239.046,198.469,244.194,203.624,246.743Z" transform="translate(-178.389 -115.743)"/><g transform="translate(87.442 92.329)"><ellipse class="f" cx="18.155" cy="18.155" rx="18.155" ry="18.155"/><g transform="translate(5.124 5.124)"><ellipse class="g" cx="13.031" cy="13.031" rx="13.031" ry="13.031"/></g><g transform="translate(7.21 7.21)"><ellipse class="h" cx="10.945" cy="10.945" rx="10.945" ry="10.945"/></g><g transform="translate(11.144 11.265)"><path class="g" d="M273.424,222.545a4.055,4.055,0,1,0,4.054-4.054A4.055,4.055,0,0,0,273.424,222.545Z" transform="translate(-273.424 -218.491)"/></g><g transform="translate(18.155 24.931)"><ellipse class="g" cx="1.618" cy="1.618" rx="1.618" ry="1.618"/></g><g transform="translate(23.785 23.313)"><path class="g" d="M285.51,230.82a.809.809,0,1,0,.81-.81A.809.809,0,0,0,285.51,230.82Z" transform="translate(-285.51 -230.01)"/></g></g><g transform="translate(38.395 92.329)"><ellipse class="i" cx="18.155" cy="18.155" rx="18.155" ry="18.155" transform="translate(0)"/><g transform="translate(5.124 5.124)"><ellipse class="g" cx="13.031" cy="13.031" rx="13.031" ry="13.031"/></g><g transform="translate(7.21 7.21)"><ellipse class="j" cx="10.945" cy="10.945" rx="10.945" ry="10.945"/></g><g transform="translate(11.144 11.265)"><path class="g" d="M226.532,222.545a4.055,4.055,0,1,0,4.054-4.054A4.055,4.055,0,0,0,226.532,222.545Z" transform="translate(-226.532 -218.491)"/></g><g transform="translate(18.155 24.931)"><ellipse class="g" cx="1.618" cy="1.618" rx="1.618" ry="1.618"/></g><g transform="translate(23.785 23.313)"><path class="g" d="M238.618,230.819a.809.809,0,1,0,.809-.809A.809.809,0,0,0,238.618,230.819Z" transform="translate(-238.618 -230.01)"/></g></g><path class="k" d="M249.59,126.013a6.565,6.565,0,1,0,6.566-6.564A6.565,6.565,0,0,0,249.59,126.013Z" transform="translate(-175.934 -119.449)"/><path class="l" d="M251.5,123.364a2,2,0,1,0,2-2A2,2,0,0,0,251.5,123.364Z" transform="translate(-175.846 -119.361)"/><path class="l" d="M201.823,187.357c-.088,3.066,2.414,6.731,5.281,7.045,2.686.293,4.831-2.451,7.044-5.282,2.181-2.79,6.949-9.955,5.051-11.982C216.693,174.463,202.028,180.126,201.823,187.357Z" transform="translate(-178.129 -116.829)"/><ellipse class="l" cx="2.282" cy="2.282" rx="2.282" ry="2.282" transform="translate(45.952 54.282)"/><path class="l" d="M202.137,228.632c.732.517,5.836-9.88,19.535-18.894,4.816-3.168,9.569-5.427,9.287-6.084s-5.641.573-9.928,2.562C207.374,212.551,201.266,228.018,202.137,228.632Z" transform="translate(-178.118 -115.588)"/><path class="l" d="M235.681,163.172c.163.024.268-.936,1.067-2.418a13.089,13.089,0,0,1,.8-1.281c1.376-1.892,6.038-1.85,6.4-1.847,7.262.063,11.931-.4,11.929-.355s-3.407-.032-5.9-.083c-7.04-.143-11.235-.522-13.033,1.364a5.929,5.929,0,0,0-1.121,1.8C235.318,161.736,235.487,163.143,235.681,163.172Z" transform="translate(-176.582 -117.721)"/><path class="g" d="M237.121,253.791a3.706,3.706,0,0,0,3.366,3.248l24.051,2.319a3.706,3.706,0,0,0,3.924-2.543,16.245,16.245,0,0,0,.517-2.3.8.8,0,0,0-.717-.918l-30.343-2.928a.792.792,0,0,0-.866.754A16.309,16.309,0,0,0,237.121,253.791Z" transform="translate(-176.511 -113.418)"/><path class="m" d="M237.116,253.656a16.06,16.06,0,0,0,31.243,3.314,3.716,3.716,0,0,1-3.824,2.249L240.479,256.9A3.712,3.712,0,0,1,237.116,253.656Z" transform="translate(-176.507 -113.281)"/><path class="n" d="M200.889,306.127c0,.221,0,.432.009.634a14.829,14.829,0,0,0,.778,4.217c6.619,20.224,10.587,30.888,16.15,39.515.961,1.489,1.97,2.92,3.055,4.323,1.423,1.874,2.978,3.7,4.708,5.582,3.843,4.18,9.655,6.072,11.529,6.725,6.85,2.42,12.9,1.979,16.928,2.018h.7c4.035-.039,10.078.4,16.928-2.018,1.873-.654,7.7-2.546,11.53-6.725,10.567-11.5,14.632-21.059,23.913-49.421a14.82,14.82,0,0,0,.768-3.958,15.646,15.646,0,0,0,.011-1.643,17.207,17.207,0,0,0-4.017-9.751,22.249,22.249,0,0,0-17.313-8.088l-32.175-.135-31.589-.126a22.8,22.8,0,0,0-17.763,8.109,17.647,17.647,0,0,0-3.92,8.156c-.067.4-.124.817-.163,1.22C200.917,305.214,200.889,305.666,200.889,306.127Z" transform="translate(-178.172 -111.736)"/><path class="o" d="M252.046,287.405l32.175.135a22.255,22.255,0,0,1,17.313,8.09,17.206,17.206,0,0,1,4.015,9.751,17.048,17.048,0,0,0-4.141-9.992,22.786,22.786,0,0,0-17.763-8.108Z" transform="translate(-175.821 -111.736)"/><path class="p" d="M222.564,334.526c.47-24.958,3.847-29.894-1.134-35.83a14.7,14.7,0,0,0-8.3-5.053,13.966,13.966,0,0,0-8.947,1.449c-9.987,5.659-7.024,30.186-.445,45.671,1.434,3.376,5.282,12.433,9.972,12.217,1.921-.088,3.338-1.7,4.332-2.868C222.445,344.959,222.493,338.288,222.564,334.526Z" transform="translate(-178.318 -111.453)"/><path class="q" d="M217.082,349.977c.961,1.49,1.97,2.92,3.055,4.323.346-.355.654-.71.932-1.038,4.4-5.149,4.448-11.816,4.515-15.583.471-24.96,3.852-29.888-1.134-35.826a15.591,15.591,0,0,0-3.871-3.343c4.918,5.918,1.566,10.895,1.1,35.778-.068,3.765-.126,10.433-4.515,15.592A.363.363,0,0,0,217.082,349.977Z" transform="translate(-177.428 -111.22)"/><path class="l" d="M203.829,313.624a41.33,41.33,0,0,1,1.651-8.6c1.316-5.161,2.966-7.676,1.894-8.672-.7-.65-2.072-.21-2.384-.112-4.717,1.505-6.177,10.355-5.975,15.894.124,3.391.952,7.183,2.194,7.35a1.41,1.41,0,0,0,1.032-.307C203.629,317.953,203.723,315.663,203.829,313.624Z" transform="translate(-178.259 -111.335)"/><path class="l" d="M200.521,321.942a.978.978,0,1,0,.979-.979A.979.979,0,0,0,200.521,321.942Z" transform="translate(-178.189 -110.188)"/></g></svg>